<?xml version="1.0" encoding="UTF-8"?>
<svg id="Layer_1" xmlns="http://www.w3.org/2000/svg" version="1.1" viewBox="0 0 604.1 604.1">
  <!-- Generator: Adobe Illustrator 30.6.0, SVG Export Plug-In . SVG Version: 2.1.4 Build 109)  -->
  <defs>
    <style>
      .st0 {
        fill: #fff;
      }
    </style>
  </defs>
  <path class="st0" d="M0,183.3c44,0,172.6,0,172.6,0,0-32.4,2-62.7,24.4-89.8,19.4-23.4,47.2-35,76.9-37.9,49.1-4.7,119.3-3,146,45.5,14.9,27.1,17.2,65.8-2.9,90.5-11.5,14.2-27.8,24-45.4,29.1-27.9,8.2-58.1,12.4-87,15.2-29.3,2.9-59.1,6.7-89.3,11.5-30.2,4.8-60.2,11.2-90,19.4-29.8,8.1-56.2,17.7-79.4,34-9.4,6.6-17.8,14.3-25.8,22.7v280.4h604V0H0v183.3ZM431.4,412.1c0,33.7-8.3,111.5-109,133.8-50.4,11.1-130.2,1.7-159.1-48.9-15.7-27.5-17.8-66.8,2.4-92.6,26.7-37.4,82.4-45.7,126.9-51.6,47.4-6.3,95.6-11,138.9-29.2v88.5Z"/>
</svg>